<svg xmlns="http://www.w3.org/2000/svg" fill="none" viewBox="0 0 48 48" id="Routine-Fill--Streamline-Outlined-Fill-Material">
  <desc>
    Routine Fill Streamline Icon: https://streamlinehq.com
  </desc>
  <path fill="currentColor" d="M22.3 25.75c1.6667 1.6667 3.4917 3.1 5.475 4.3 1.9833 1.2 4.125 2.1333 6.425 2.8 -1.2667 1.5 -2.7833 2.65 -4.55 3.45 -1.7667 0.8 -3.6333 1.2 -5.6 1.2 -3.7333 0 -6.9167 -1.3167 -9.55 -3.95 -2.6333 -2.6333 -3.95 -5.8167 -3.95 -9.55 0 -1.9667 0.4 -3.8333 1.2 -5.6 0.8 -1.7667 1.95 -3.2833 3.45 -4.55 0.6667 2.3 1.6 4.4417 2.8 6.425 1.2 1.9833 2.6333 3.8083 4.3 5.475Zm13.7 4.5c-0.5 -0.1333 -1 -0.275 -1.5 -0.425 -0.5 -0.15 -0.9833 -0.325 -1.45 -0.525 0.4667 -0.8 0.825 -1.65 1.075 -2.55 0.25 -0.9 0.375 -1.8167 0.375 -2.75 0 -2.9333 -1.0167 -5.4167 -3.05 -7.45 -2.0333 -2.0333 -4.5167 -3.05 -7.45 -3.05 -0.9333 0 -1.85 0.125 -2.75 0.375 -0.9 0.25 -1.75 0.6083 -2.55 1.075 -0.1667 -0.4667 -0.325 -0.9417 -0.475 -1.425 -0.15 -0.4833 -0.2917 -0.975 -0.425 -1.475 0.9667 -0.5 1.975 -0.8833 3.025 -1.15 1.05 -0.2667 2.125 -0.4 3.225 -0.4 3.7333 0 6.9167 1.3167 9.55 3.95 2.6333 2.6333 3.95 5.8167 3.95 9.55 0 1.1 -0.1333 2.175 -0.4 3.225 -0.2667 1.05 -0.65 2.0583 -1.15 3.025ZM22.5 6V0h3v6h-3Zm0 42v-6h3v6h-3Zm15.3 -35.65 -2.15 -2.15L39.9 6l2.15 2.1 -4.25 4.25ZM8.1 42l-2.15 -2.1 4.25 -4.25 2.15 2.15L8.1 42ZM42 25.5v-3h6v3h-6Zm-42 0v-3h6v3H0Zm39.9 16.55 -4.25 -4.25 2.15 -2.15L42 39.9l-2.1 2.15Zm-29.7 -29.7L6 8.1l2.1 -2.15 4.25 4.25 -2.15 2.15Z" stroke-width="1"></path>
</svg>