<svg xmlns="http://www.w3.org/2000/svg" fill="none" viewBox="0 0 450 450" id="School--Streamline-Ionic-Filled" height="450" width="450">
  <desc>
    School Streamline Icon: https://streamlinehq.com
  </desc>
  <path fill="#efed56" d="M224.98874999999998 323.43375000000003c-2.4478125 0 -4.8534375 -0.6393749999999999 -6.9778125 -1.854375L94.91250000000001 251.22375c-1.0696875 -0.616875 -2.28328125 -0.9421875000000001 -3.51815625 -0.94125 -1.23478125 0 -2.4485625000000004 0.32625 -3.51740625 0.9440625 -1.069125 0.61875 -1.9565625 1.5065625 -2.5729687500000002 2.5771875 -0.6163125 1.070625 -0.9399375 2.2846875 -0.93815625 3.519375v66.110625c-0.0020625 2.5096875 0.6676875000000001 4.974374999999999 1.93959375 7.138125 1.27190625 2.16375 3.1000312500000002 3.9478125 5.29378125 5.1665625L218.16 406.04999999999995c2.08875 1.160625 4.4390624999999995 1.77 6.82875 1.77 2.3896875 0 4.74 -0.609375 6.8296875 -1.77l126.560625 -70.31156250000001c2.19375 -1.21875 4.021875 -3.0028124999999997 5.293125 -5.1665625 1.2721874999999998 -2.16375 1.9415625 -4.6284375 1.9396875 -7.138125v-66.110625c0.0018750000000000001 -1.2346875000000002 -0.3215625 -2.44875 -0.9375 -3.519375 -0.616875 -1.070625 -1.50375 -1.9584375 -2.5734375000000003 -2.5771875 -1.06875 -0.6178125 -2.2828125 -0.9440625 -3.5174999999999996 -0.9440625 -1.2346875000000002 -0.0009375000000000001 -2.44875 0.32437499999999997 -3.5184375 0.94125l-123.0975 70.355625c-2.1253125 1.2149999999999999 -4.5309375 1.854375 -6.97875 1.854375Z" stroke-width="9.375"></path>
  <path fill="#efed56" d="m435.8690625 167.42906250000001 0 -0.0965625c-0.2278125 -2.229375 -0.984375 -4.3715625 -2.206875 -6.249375 -1.2234375 -1.8768749999999998 -2.878125 -3.4340625 -4.824375 -4.543125L231.965625 44.04121875c-2.1253125 -1.2147187499999998 -4.5309375 -1.8537187499999999 -6.97875 -1.8537187499999999 -2.4478125 0 -4.8534375 0.639 -6.97875 1.8537187499999999L21.1359375 156.54000000000002c-2.15165625 1.2300000000000002 -3.9399375 3.0075 -5.183718750000001 5.150625 -1.24378125 2.1440625 -1.89890625 4.57875 -1.89890625 7.0565625 0 2.4787500000000002 0.655125 4.9134375 1.89890625 7.0565625 1.24378125 2.145 3.0320625 3.9206250000000002 5.183718750000001 5.1515625l196.8721875 112.498125c2.1253125 1.2149999999999999 4.5309375 1.854375 6.97875 1.854375 2.4478125 0 4.8534375 -0.6393749999999999 6.97875 -1.854375l173.21249999999998 -98.971875c0.268125 -0.1546875 0.5709375 -0.2353125 0.8803124999999999 -0.2353125 0.309375 0.0009375000000000001 0.6121875 0.0825 0.8793749999999999 0.2371875 0.268125 0.155625 0.4903125 0.3778125 0.6440625 0.6459375 0.15375000000000003 0.268125 0.2334375 0.571875 0.23249999999999998 0.88125v127.0265625c0 7.5675 5.818125 14.0625 13.385625 14.4403125 1.90125 0.091875 3.8015625 -0.2034375 5.585625 -0.868125 1.783125 -0.6646875000000001 3.414375 -1.68375 4.7915625 -2.9971875 1.3781249999999998 -1.3134375 2.4759375 -2.8921875 3.2259375 -4.6425 0.7490625 -1.749375 1.13625 -3.6328125 1.13625 -5.536875V168.7471875c-0.0009375000000000001 -0.43968749999999995 -0.0253125 -0.8803124999999999 -0.0703125 -1.318125Z" stroke-width="9.375"></path>
</svg>